/* XPM */
static char *orange[] = {
/* columns rows colors chars-per-pixel */
"75 74 256 2",
"   c #010000",
".  c #0A0301",
"X  c #000C00",
"o  c #0E0801",
"O  c #160904",
"+  c #001500",
"@  c #001B00",
"#  c #1D1203",
"$  c #1D170D",
"%  c #270402",
"&  c #271806",
"*  c #361D04",
"=  c #002400",
"-  c #002900",
";  c #003200",
":  c #003C00",
">  c #322108",
",  c #482E0A",
"<  c #48300D",
"1  c #523107",
"2  c #5A380A",
"3  c #543309",
"4  c #633D09",
"5  c #004200",
"6  c #004C00",
"7  c #005700",
"8  c #005C00",
"9  c #006500",
"0  c #006A00",
"q  c #007700",
"w  c #007E00",
"e  c #6D4209",
"r  c #73470B",
"t  c #764D13",
"y  c #7B5118",
"u  c #84520D",
"i  c #88540D",
"p  c #945A0D",
"a  c #9A5D0D",
"s  c #935D13",
"d  c #99641C",
"f  c #A56A1A",
"g  c #AC701D",
"h  c #BD7010",
"j  c #AC7121",
"k  c #CC6503",
"l  c #DD6505",
"z  c #DE6B07",
"x  c #DC650A",
"c  c #DE6D09",
"v  c #D76400",
"b  c #CD7B0C",
"n  c #DD7106",
"m  c #D67209",
"M  c #DF730B",
"N  c #DE7B0D",
"B  c #D67905",
"V  c #CE6F15",
"C  c #DB6514",
"Z  c #D66F10",
"A  c #DC6B13",
"S  c #DD6B18",
"D  c #DB6519",
"F  c #C37912",
"G  c #CE7D12",
"H  c #C67B15",
"J  c #D67514",
"K  c #DD7413",
"L  c #DA7A15",
"P  c #D4761C",
"I  c #D67917",
"U  c #E06C04",
"Y  c #E17403",
"T  c #E37E06",
"R  c #E0740B",
"E  c #E17B0E",
"W  c #E07712",
"Q  c #E17D11",
"!  c #E17E1A",
"~  c #CA7B24",
"^  c #D67D24",
"/  c #CC7D30",
"(  c #008100",
")  c #008E00",
"_  c #009300",
"`  c #009C00",
"'  c #00A300",
"]  c #00AB00",
"[  c #00B000",
"{  c #00BC00",
"}  c #00C100",
"|  c #00C800",
" . c #00D300",
".. c #00F400",
"X. c #DC860F",
"o. c #DE8407",
"O. c #CD8116",
"+. c #D38515",
"@. c #DC8513",
"#. c #DD8916",
"$. c #DC8B1C",
"%. c #E2810F",
"&. c #E58A0D",
"*. c #E08507",
"=. c #E28412",
"-. c #E48C15",
";. c #EC8D14",
":. c #E3841B",
">. c #E38D1A",
",. c #E79017",
"<. c #EC9217",
"1. c #E5911D",
"2. c #EB931C",
"3. c #F19216",
"4. c #CF8520",
"5. c #CF852E",
"6. c #D08722",
"7. c #D28924",
"8. c #DB8C23",
"9. c #D58C2C",
"0. c #D88726",
"q. c #DF9021",
"w. c #DC922B",
"e. c #CB8C3C",
"r. c #CF8232",
"t. c #D58B35",
"y. c #D59135",
"u. c #D3943C",
"i. c #DB9537",
"p. c #E38423",
"a. c #E48C23",
"s. c #E38729",
"d. c #E48B2B",
"f. c #E59324",
"g. c #E5952B",
"h. c #E6982D",
"j. c #EB9B2D",
"k. c #EC9926",
"l. c #F39E2B",
"z. c #E58D32",
"x. c #E69334",
"c. c #E79A34",
"v. c #E6943B",
"b. c #E79B3B",
"n. c #E89C3C",
"m. c #E89B36",
"M. c #F6A02E",
"N. c #E7A03F",
"B. c #E8A03F",
"V. c #D38B43",
"C. c #C89040",
"Z. c #CF9749",
"A. c #D29542",
"S. c #D4934B",
"D. c #D29B4B",
"F. c #D99D4B",
"G. c #D89A44",
"H. c #CE9A53",
"J. c #CF9459",
"K. c #D59C54",
"L. c #DA9C5B",
"P. c #D3975A",
"I. c #E79641",
"U. c #E89740",
"Y. c #E79B43",
"T. c #E89D44",
"R. c #E79B49",
"E. c #E89E4B",
"W. c #E89F50",
"Q. c #DBA65D",
"!. c #D1A05C",
"~. c #E7A142",
"^. c #E8A145",
"/. c #E9A34C",
"(. c #E9A453",
"). c #EAA956",
"_. c #EAA65A",
"`. c #EBAA5C",
"'. c #D79F64",
"]. c #CCA169",
"[. c #D3A463",
"{. c #D4A36A",
"}. c #D9AC6D",
"|. c #D7A569",
" X c #CEA773",
".X c #D5A573",
"XX c #D4AB74",
"oX c #DAAD73",
"OX c #D7AE7C",
"+X c #DDB175",
"@X c #DDB37D",
"#X c #EBAC63",
"$X c #EDAF6A",
"%X c #E0AC6E",
"&X c #ECB065",
"*X c #EDB16B",
"=X c #EEB573",
"-X c #EFB97C",
";X c #E8B778",
":X c #AEA395",
">X c #B6AB9C",
",X c #BFB4A3",
"<X c #CAB08C",
"1X c #D5B487",
"2X c #DAB483",
"3X c #DABA8D",
"4X c #D8B58B",
"5X c #DCBD95",
"6X c #D9BF9B",
"7X c #D2B898",
"8X c #E3BD86",
"9X c #EFBD82",
"0X c #E3BD8B",
"qX c #E2BD91",
"wX c #C2B5A3",
"eX c #C4B8A6",
"rX c #C9BBA5",
"tX c #CABDA9",
"yX c #DDC19C",
"uX c #E4C08F",
"iX c #E3C193",
"pX c #E4C59A",
"aX c #E3C89F",
"sX c #CEC1AC",
"dX c #DDC5A3",
"fX c #D3C4AE",
"gX c #DFCAAA",
"hX c #D3C6B1",
"jX c #D6C9B4",
"kX c #DCCCB5",
"lX c #DBCEB9",
"zX c #DED0BA",
"xX c #E4C6A0",
"cX c #E4CAA4",
"vX c #EACFA7",
"bX c #E3CBAA",
"nX c #E9CFAA",
"mX c #EBD1AE",
"MX c #E0CEB4",
"NX c #E5D1B5",
"BX c #EAD4B3",
"VX c #EFD8B7",
"CX c #E3D3BB",
"ZX c #E9D6BA",
"AX c #E7D8BF",
"SX c #ECD9BD",
"DX c #F1DCBC",
"FX c #E3D6C1",
"GX c #E7D8C1",
"HX c #EDDCC2",
"JX c #ECDEC9",
"KX c #F2DFC2",
"LX c #F3E0C3",
"PX c #F2E3CB",
"IX c #F6E9D3",
"UX c None",
/* pixels */
"UXUXUXUXUXUXUXUXUXUXUXUXUXUXUXUXUXUXUXUXUXUXUXUXUXUXUXUXUXUXUXUXUXUX,XjXsXCXAXCXAXrXzXtXUXUXUXUXUXUXUXUXUXUXUXUXUXUXUXUXUXUXUXUXUXUXUXUXUXUXUXUXUXUXUX",
"UXUXUXUXUXUXUXUXUXUXUXUXUXUXUXUXUXUXUXUXUXUXUXUXUXUXUXUXUXUXjXkXzXZXVXyXuXuXXXXX0X<X6XBXDXkXkXjXsXUXUXUXUXUXUXUXUXUXUXUXUXUXUXUXUXUXUXUXUXUXUXUXUXUXUX",
"UXUXUXUXUXUXUXUXUXUXUXUXUXUXUXUXUXUXUXUXUXUXUXUXUXUXUXkXPXZXvX1X!.y.$.,.1.,.-.F > O $ d 6.Z.OXaXZXHXCXUXUXUXUXUXUXUXUXUXUXUXUXUXUXUXUXUXUXUXUXUXUXUXUX",
"UXUXUXUXUXUXUXUXUXUXUXUXUXUXUXUXUXUXUXUXUXUXUXUXsXkXLXvX+XZ.O.o.&.,.,.,.-.-.r #   :   2 2.2.-.G u.+XvXLXkXUXUXUXUXUXUXUXUXUXUXUXUXUXUXUXUXUXUXUXUXUXUX",
"UXUXUXUXUXUXUXUXUXUXUXUXUXUXUXUXUXUXUXUXUXUXHXzXyX@XG.N.#.1.k.h.f.,.-.<.O.2     = [   2 j y s >.&.@.q.!.uXNXCXUXUXUXUXUXUXUXUXUXUXUXUXUXUXUXUXUXUXUXUX",
"UXUXUXUXUXUXUXUXUXUXUXUXUXUXUXUXUXUXUXUXSXPXyXF.O.,.#.,.,.,.1.f.h.h.l.p &   6 + 8 ..  . .   # F ,.-.-.-.q.i.3XPXkXUXUXUXUXUXUXUXUXUXUXUXUXUXUXUXUXUXUX",
"UXUXUXUXUXUXUXUXUXUXUXUXUXUXUXUXUXUXkXKXdXC.-.#.1.-.-.,.,.,.#.,.1.7.<   X 9 ` X ( ]   + 8 9   i ,.,.-.$.,.-.#.H.VXSXtXUXUXUXUXUXUXUXUXUXUXUXUXUXUXUXUX",
"UXUXUXUXUXUXUXUXUXUXUXUXUXUXUXUXfXHXBX!.+.,.-.,.,.-.1.#.-.q.1.q.t .   : ` } | 6     + q ` ` - # 8.2.,.,.,.-.-.&.9.2XHXhXUXUXUXUXUXUXUXUXUXUXUXUXUXUXUX",
"UXUXUXUXUXUXUXUXUXUXUXUXUXUXUXNXKX Xq.-.-.-.#.,.#.1.q.h.g.g.h.<   - `  .{ w 8 ] 0 7 ) ` ` ` 9   y j.h.h.g.k.1.$.,.#.H.KXzXUXUXUXUXUXUXUXUXUXUXUXUXUXUX",
"UXUXUXUXUXUXUXUXUXUXUXUXUXUXSXBXD.-.1.#.,.,.1.h.j.h.j.h.h.j.g .   X           ` } ' 0 ; q _ _ @ o 8.f.f.g.g.g.h.g.1.,.e.ZXZXUXUXUXUXUXUXUXUXUXUXUXUXUX",
"UXUXUXUXUXUXUXUXUXUXUXUXhXZXiXy.o.,.#.,.1.h.h.h.h.h.f.1.1.1.#.i 2 1 3 4 r 4 . ) | )   .   : ) 8 X t ,.,.#.-.,.1.1.f.f.1.y.cXzXUXUXUXUXUXUXUXUXUXUXUXUX",
"UXUXUXUXUXUXUXUXUXUXUXhXLX X$.-.,.1.h.h.h.h.h.1.1.,.,.,.#.,.,.<.-.-.-.-.<.F . _  .5   d t . + 0 @ & w.1.,.-.-.-.,.-.,.-.-.9.yXCXUXUXUXUXUXUXUXUXUXUXUX",
"UXUXUXUXUXUXUXUXUXUXsXAX}.$.,.1.h.h.h.h.g.q.-.&.,.#.,.,.-.-.,.#.-.,.-.-.-.F O ' { X & #.k.g &   @   f h.g.f.-.-.-.-.-.-.,.&.6.cXAXUXUXUXUXUXUXUXUXUXUX",
"UXUXUXUXUXUXUXUXUXsXzX[.X.1.g.h.h.f.1.1.,.-.,.-.#.,.,.#.,.-.#.,.-.-.-.-.-.G % ' w   e 3.-.<.O.3 .   # M.g.h.f.>.-.-.-.-.#.,.#.i.mXkXUXUXUXUXUXUXUXUXUX",
"UXUXUXUXUXUXUXUXfXLX}.#.k.h.g.f.,.1.,.,.,.#.-.,.,.,.,.,.,.-.-.-.,.-.-.-.-.@.> - ;   =.-.-.=.-.=.a # . M.g.g.g.f.-.=.-.-.-.-.-.&.u.DXkXUXUXUXUXUXUXUXUX",
"UXUXUXUXUXUXUXUXSX1X#.h.h.q.,.,.-.,.#.#.,.,.,.#.,.#.,.#.#.-.-.-.-.-.-.#.-.=.,     4 <.-.=.-.-.=.=.@.+.f.g.g.g.h.g.-.-.=.-.-.#.,.&.].LXfXUXUXUXUXUXUXUX",
"UXUXUXUXUXUXUXHXdX$.g.1.,.-.,.,.-.,.-.1.-.1.#.,.-.-.-.-.-.-.-.-.-.,.=.-.=.<.4   o G -.=.-.=.=.=.-.-.=.-.-.a.g.g.g.g.-.-.=.-.=.-.-.&.1XGXUXUXUXUXUXUXUX",
"UXUXUXUXUXUXkXbXw.,.,.#.,.#.#.-.-.-.-.-.-.-.1.-.,.-.-.-.-.#.-.-.=.=.-.=.-.;.h * p -.=.-.=.=.-.-.=.=.=.=.-.=.>.g.g.g.1.:.-.-.=.=.=.-.8.bXjXUXUXUXUXUXUX",
"UXUXUXUXUX,XHXQ.#.,.#.,.,.,.,.,.-.1.-.,.,.,.#.,.-.-.-.-.-.-.-.=.-.-.-.-.=.=.-.;.;.=.=.=.=.=.=.=.=.-.=.=.-.=.=.-.a.g.g.>.=.=.-.-.-.=.=.D.DXtXUXUXUXUXUX",
"UXUXUXUXUXHXpX#.,.-.,.-.,.#.#.-.-.-.-.-.#.-.-.#.-.-.=.=.=.-.=.-.=.=.=.=.-.=.-.=.=.&.=.=.-.=.=.=.=.=.=.=.=.=.=.=.:.>.g.g.>.&.-.=.-.S W @.pXHXUXUXUXUXUX",
"UXUXUXUXhXAXy.&.,.,.#.,.1.-.1.-.-.-.,.-.-.-.-.-.-.=.-.-.-.=.-.-.-.-.=.-.=.=.=.=.=.=.=.=.=.=.=.=.=.=.=.=.=.=.=.=.=.=.>.g.f.-.=.=.=.K Q -.y.GXjXUXUXUXUX",
"UXUXUXUXFX+X#.,.#.,.,.-.#.-.-.-.-.,.#.-.-.-.&.-.-.-.-.=.=.=.=.=.=.=.=.&.=.=.=.=.@.=.=.=.=.%.%.=.=.=.%.=.=.=.%.=.=.=.=.:.g.:.&.:.=.-.=.-.@..XJXUXUXUXUX",
"UXUXUXsXgXy.,.-.#.,.,.,.,.#.-.-.,.,.>.>.>.-.#.,.=.-.-.=.-.=.=.=.=.=.=.=.=.=.=.%.%.%.E =.=.=.%.=.=.=.%.=.=.=.%.=.=.=.=.=.:.g.=.=.=.=.-.=.&.i.NXUXUXUXUX",
"UXUXUXgXuX#.,.-.,.,.#.#.,.,.,.1.f.q.f.f.f.1.q.,.-.-.=.-.=.=.=.=.=.=.%.=.=.=.%.Q =.=.%.=.%.E =.=.E =.=.E Q =.=.E %.=.=.=.=.>.a.=.=.=.:.=.=.#.uXCXUXUXUX",
"UXUXUXLXA.-.,.,.-.#.,.-.#.1.f.f.f.g.g.f.g.f.a.f.>.>.-.=.=.=.=.=.=.=.=.%.=.=.Q =.=.=.E =.E =.=.%.Q =.=.=.%.%.=.%.Q =.=.%.=.=.p.=.=.=.=.=.=.=.F.ZXUXUXUX",
"UXUXfXaXq.-.-.$.,.,.-.,.,.f.g.g.h.h.c.g.g.g.g.a.a.a.>.=.=.%.=.=.=.=.=.%.%.%.%.E E =.Q %.E E E E E E E E Q %.E %.E %.E =.%.=.=.p.=.=.=.=.=.=.8.mXwXUXUX",
"UXUXAX}.X.,.,.#.-.-.,.1.f.h.h.h.c.c.c.c.c.c.g.x.g.a.a.:.:.&.=.%.Q =.=.=.%.%.Q %.=.E E =.%.E %.%.E %.E %.E %.%.%.=.%.=.=.%.=.=.=.:.=.=.=.&.=.N @XCXUXUX",
"UXUXZXu.&.,.>.,.,.,.1.q.h.h.h.c.c.c.b.c.c.v.c.c.g.g.a.>.:.=.E =.%.E E E =.%.Q E E %.E E L %.E E =.E E E =.N E E E E E E E E =.=.=.=.%.=.@.=.N !.HXUXUX",
"UXlXcX+.,.,.-.-.#.,.k.g.h.c.m.N.b.~.N.~.b.b.c.c.x.x.d.a.:.=.=.Q Q =.=.E E E =.E E Q E E E N E E E E E E E E E E N E E E %.E =.Q =.:.R K =.=.%.0.BXzXUX",
"UXCX2X*.,.#.,.-.,.1.w.h.c.m.N.N.~.^.^.^.^.^.Y.b.v.x.g.d.a.>.=.%.%.E E %.E E E E E E N E E N E N N E N E E E E E E =.E =.N =.%.E E =.W A %.%.=.B aXzXUX",
"UXAXQ.&.,.,.#.-.-.k.h.c.N.N.N.~././././././.T.Y.b.v.x.d.a.:.:.E E E Q E E E E E E N E E E E E E E E E E E E E L E E E E %.E E E =.E =.%.=.%.%.T XXCXUX",
"UXZXi.-.$.,.,.-.q.h.h.c.N.N.~././.).)./.(././.T.U.b.x.g.d.p.:.%.E =.E E E E E E E N M E E E R E N E N E E E E E E E E E N E Q %.E E Q E =.E %.%.S.NXUX",
"UXBXO.,.,.-.,.$.1.h.k.N.N.^././.).).).`.).(.(.E.E.n.v.x.d.a.:.Q E E E E M E E E E R N E R E E E R E R E R E E E E E E E N A K E E %.E =.E =.%.%.~ ZXUX",
":XvX1.-.#.,.-.,.k.h.N.N.^.^.).).`.`.#X`.`._.).(./.T.v.x.z.d.:.=.Q E E E N E E R E E R E E R R E E R R E E E M E E R E E E A c E E E Q %.E E Q =.L BX:X",
"jXuX1.-.,.,.-.1.g.h.N.N.^./.).`.`.&X&X&X#X#X_.)./.T.T.v.x.a.p.:.Q E E E E R R E E M R N M N M R M M R M N M M R M E E R E E E E E E E E Q %.%.N L dX,X",
"eX2X-.-.-.-.-.f.h.c.N.~./.).).`.&X&X*X*X&X#X#X_.(.E.U.v.z.d.s.! Q N E R N E E M M N R R R R M L E R M N M M E N N M M E R E R E E E E N %.E Q S K 3XrX",
"kXXX#.,.-.,.#.f.h.c.N.~./.).`.&X&X*X=X=X=X$X#X_.(./.U.U.z.d.p.:.Q E E R M M N M M R N R M R R R M M R M M R M R M R M E E E R E E N E E E %.E K M 0XsX",
"fX+X#.,.,.-.-.f.h.c.N.^.(.).`.&X*X=X-X=X=X$X$X`._.W.R.U.x.z.s.! Q E R N R E M M M M R R R R K c R M R M M M M M M M M N M E R E R E E E E E E %.L 0XwX",
"sX;X,.#.-.>.-.f.h.m.N.^./.).#X&X=X=X-X-X-X=X$X#X_.W.R.v.x.d.s.:.W E E M E M N M M R M R R M M M R c R R R R M M M D A R M E R E E E E E N E E =.E OXrX",
"fX+X#.,.-.-.-.f.c.m.N./.(.).&X&X=X-X9X9X-X=X$X#X_.W.R.U.x.d.s.! Q M M R M M M R M M c R R c c M M R c R M R R R M M M M M M M N R E E E E E E E N ].wX",
"gXXX-.-.,.-.-.q.j.c.Y.^.(.).#X&X=X=XuX-X-X=X$X#X#XW.R.I.z.s.s.! W N R R R M M c M R c c c c M z c M c M c M c M M M R R M M M R E E R D M E E E E 0XeX",
"sX@X-.-.-.-.,.q.g.b.n.^.(.).#X&X=X=X-X-X-X=X$X#XW.W.R.I.z.z.p.! W M R R R c R R c M c c z R c R c c c n c c n M M M R n M R M N M M E A M E E E Q 0XtX",
"sXuX+.-.,.-.-.q.g.x.n.^./.).`.&X&X=X=X=X=X$X#X`.W.W.I.I.z.s.^ ! W M M M R R M M c c Y c c c U z c c c c c M M c c M M M M M M M M N E R R E N E N 4XfX",
"fXuX#.-.-.#.,.1.g.j.n.T.^.(.).#X&X=X*X=X$X$X#X_.W.W.I.I.z.s.p.! W M M M M c c c M c c c U R x R c U z c c c c c c c c M M D c R R R M E N E R L Q dX:X",
"wXNX#.,.#.-.-.,.g.x.x.T./.E.).`.#X$X$X$X$X#X_._.W.I.I.z.z.s.! ! R M R M c n c R c c c U U z U x c z c z c U z c c n c M c A c R R M E N R E E E m MX>X",
"UXKXO.,.-.-.&.#.f.h.m.n.T./.W.).`._.#X#X#X_._.W.W.I.I.z.s.s.! W R R c M M c c c c c c z U c z z U z l R U z D C c c c n R c M M M M M M E R E E ~ ZXUX",
"UXZXA.,.-.-.-.-.2.d.m.v.M.E./.(._._._._._._.W.W.R.I.z.z.s.! ! W R M M M c U c U c c z z z z z U z U z z z U x z c c c c c R R M M R M R R E E Y K.MXUX",
"UXCX}.&.-.-.=.&.=.f.x.m.v.T.E.E.W.(.W._.W.W.E.R.I.v.z.z.s.! W R R c c c c c c c c z z z z x z z z l x U z z c c z c c c c c R R M M M E R R R z 0XAXUX",
"UXzXpXo.-.-.=.-.=.,.g.x.c.v.Y.T.E.E./.E.W.E.R.U.v.x.z.s.p.! W R R R z R z z z x U U U U l l l l x z z l x U U U U x c c c c M c R M M A c R R I nXCXUX",
"UXzXnXO.;.-.-.=.=.-.a.g.x.c.c.Y.Y.T.R.Y.Y.U.U.v.z.z.z.! ! W W R c c c c c R z U x U x l l l l l l l x z U x x U U U z c c R c M c R M C A E Y S.GXUXUX",
"UXUXAXZ.&.=.-.=.-.-.>.d.g.z.v.v.v.U.b.U.U.v.v.z.z.z.s.! ! K M R R c c c R x U U U x l x l x l l U l l z U l U U x U x R c c M c R R R R M N m 2XAXUXUX",
"UXUXzX@XX.-.-.-.=.=.=.>.d.g.g.x.x.v.v.x.v.z.z.z.s.s.! ! Q R c c Y c z U R z x U x U l l l l l l l l U l l x x l U x U x c c c M c M M M R M ^ BXeXUXUX",
"UXUXsXvX8.-.-.=.-.=.-.=.p.g.d.g.g.z.x.z.x.d.d.a.s.! ! ! W R c R M c c c U U U x x x U l l l x x l l l l x x l U z z U c c x D c M M R M M R L.ZXUXUXUX",
"UXUXUXSXF.-.-.=.=.=.=.%.=.>.a.a.d.d.d.d.d.s.s.p.! ! W E M R R R c c c c U C U C U x l l l l x C l l l l C x l x z l U z c z A c c R M M R L aXzXUXUXUX",
"UXUXUXzX8X@.-.-.-.&.=.:.=.=.:.p.a.p.a.p.p.p.:.! ! ! R R M R R c n c c c x U U l U l l l l l v l l x l l l l l l z z z c c c c c c M R M n V.GXUXUXUXUX",
"UXUXUXjXcX9.-.=.=.=.=.=.=.=.@.=.:.>.:.:.:.:.! ! ! R R R M R R R R c c c U U U U x U l l l x v v v v v l l l l l l z z z c c c n M R M R m 7XCXUXUXUXUX",
"UXUXUXUXGX|.#.-.:.-.%.&.=.Q %.E Q =.=.=.! Q Q E R E M R M R R R c c c c U U z x C l l l l l l v x v l v l l l l z z z c c c R c c R R c P.PXUXUXUXUXUX",
"UXUXUXUXfXCX8.=.=.&.-.=.=.=.=.=.=.E Q E N Q N E E N M E M M c c n c c c z z z z C x l l l l l l v x v D x z l z l z z z z c c c c c R ^ VXNXUXUXUXUXUX",
"UXUXUXUXUXHX1X=.=.=.=.=.%.=.=.E =.E Q E E E E R M M M M R M R R R c c c z U U x U l l l l l l l x l l x l l z l l z z c c c c c R R M OXHXUXUXUXUXUXUX",
"UXUXUXUXUXjXKXA.=.-.=.=.=.%.=.=.%.=.E E E E E E E N R R M R c M z c c c R z z z x U l l l l l l l l l U l U x x z z z z c c c n c R V.JXtXUXUXUXUXUXUX",
"UXUXUXUXUXUXkXvX$.&.=.=.=.=.Q %.E =.E E E N N E E R R R M R R c D A c c z U z z x U x x l l l x l l l l U l C x z z z z c C A c U r.DXCXUXUXUXUXUXUXUX",
"UXUXUXUXUXUXUXHX3XN -.=.=.%.=.%.%.Q E %.E E Q M R E N M N M R M c x c c z z U x U x l U l l l D x l l l x l x z z z z z c z z c P mXNXUXUXUXUXUXUXUXUX",
"UXUXUXUXUXUXUXrXKX{.N =.=.=.Q %.=.E =.E Q E E E N Q E M M M M c M c M c R c c U x U U l U l l x U l l l z z z z U x U R c R c J qXCXUXUXUXUXUXUXUXUXUX",
"UXUXUXUXUXUXUXUXtXSX}.B =.=.%.=.Q =.E E E E E E R R N M M M M M M M c c z c x U U U x U x U x U x l l x l x z z z R c c c U J iXHXUXUXUXUXUXUXUXUXUXUX",
"UXUXUXUXUXUXUXUXUXtXZXXXB =.=.Q Q Q E E E E E N E E R M N R M R M c M c c c c z z U c z z l z l z x l z z z U x z z z c c J pXDXUXUXUXUXUXUXUXUXUXUXUX",
"UXUXUXUXUXUXUXUXUXUXfXLX5X0.%.%.%.=.%.%.E %.E E E E E M R E M M R M c c c c c c z z z z z x z z z z z x z U z R U R c c ^ 5XHXUXUXUXUXUXUXUXUXUXUXUXUX",
"UXUXUXUXUXUXUXUXUXUXUXUXCXNX+X5.N E E %.E E E E M A E N M N M R R M c D c c c c c c c z C U z l z U z R c z U x R z v V.cXGXUXUXUXUXUXUXUXUXUXUXUXUXUX",
"UXUXUXUXUXUXUXUXUXUXUXUXUXhXAXKXyXe.:.E E E Q E A S R R E M M M R M c D n R M c c c c z C l R z z c z z c U c R U J .XKXCXUXUXUXUXUXUXUXUXUXUXUXUXUXUX",
"UXUXUXUXUXUXUXUXUXUXUXUXUXUXUXhXZXIXdX[.t.L E R E R E E R R R R M R M R c M M c c c n c c c c R z z U C z R z Z V.6XPXhXUXUXUXUXUXUXUXUXUXUXUXUXUXUXUX",
"UXUXUXUXUXUXUXUXUXUXUXUXUXUXUXUXUXUXCXFXMXpX%Xu.$.m Y R E E N M N M M M R c M c n n c c c c c c c R x x v P S.qXCXAXUXUXUXUXUXUXUXUXUXUXUXUXUXUXUXUXUX",
"UXUXUXUXUXUXUXUXUXUXUXUXUXUXUXUXUXUXUXUXUXjXCXLXcX2XP.~ k U Y R R M R R M A x M M c n c n M c c U U k / '.cXKXjXUXUXUXUXUXUXUXUXUXUXUXUXUXUXUXUXUXUXUX",
"UXUXUXUXUXUXUXUXUXUXUXUXUXUXUXUXUXUXUXUXUXUXUXUXtXHXHXnXaX2XQ.r.I K M R m C C z c z c c c m M V e..XxXBXJXkXUXUXUXUXUXUXUXUXUXUXUXUXUXUXUXUXUXUXUXUXUX",
"UXUXUXUXUXUXUXUXUXUXUXUXUXUXUXUXUXUXUXUXUXUXUXUXUXUXUXjXlXCXCXZXVXxXqX8X%X'.P.W.P.P.J.%XoXqXcXDXZXCXlXfXUXUXUXUXUXUXUXUXUXUXUXUXUXUXUXUXUXUXUXUXUXUXUX",
"UXUXUXUXUXUXUXUXUXUXUXUXUXUXUXUXUXUXUXUXUXUXUXUXUXUXUXUXUXUXUXUXUXrXhXkXtXtXKXDXKXKXKXtXkXfXfXUXUXUXUXUXUXUXUXUXUXUXUXUXUXUXUXUXUXUXUXUXUXUXUXUXUXUXUX"
};
